<svg width="1600" height="620" viewBox="0 0 1600 620" fill="none" xmlns="http://www.w3.org/2000/svg" role="img" aria-labelledby="title desc">
  <title id="title">Professional capability grid</title>
  <desc id="desc">Five professional capability lanes with practical outputs.</desc>
  <defs><linearGradient id="bg" x1="0" y1="0" x2="1600" y2="620"><stop stop-color="#070B18"/><stop offset="1" stop-color="#0A1728"/></linearGradient><filter id="shadow"><feDropShadow dx="0" dy="12" stdDeviation="16" flood-opacity="0.28"/></filter></defs>
  <rect width="1600" height="620" rx="34" fill="url(#bg)"/>
  <rect x="30" y="30" width="1540" height="560" rx="28" stroke="#8CDFFF" stroke-opacity="0.15"/>
  <text x="76" y="94" fill="#FFFFFF" font-family="Inter, Segoe UI, Arial, sans-serif" font-size="36" font-weight="850">Professional Capability Grid</text>
  <text x="76" y="130" fill="#9BAED0" font-family="Inter, Segoe UI, Arial, sans-serif" font-size="18">A compact view of the work I can be trusted to perform and explain.</text>

  <g filter="url(#shadow)" font-family="Inter, Segoe UI, Arial, sans-serif">
    <g transform="translate(78 190)"><rect width="282" height="300" rx="24" fill="#0D172A" stroke="#5BE2FF" stroke-opacity="0.3"/><text x="26" y="48" fill="#5BE2FF" font-size="18" font-weight="800">01</text><text x="26" y="88" fill="#FFF" font-size="25" font-weight="850">Python SDET</text><text x="26" y="132" fill="#DCE6FB" font-size="18">pytest contracts</text><text x="26" y="164" fill="#DCE6FB" font-size="18">failure reproduction</text><text x="26" y="196" fill="#DCE6FB" font-size="18">test review</text><text x="26" y="250" fill="#8FA4C8" font-size="15">output: trustworthy pass/fail proof</text></g>
    <g transform="translate(384 190)"><rect width="282" height="300" rx="24" fill="#101329" stroke="#BCA4FF" stroke-opacity="0.28"/><text x="26" y="48" fill="#BCA4FF" font-size="18" font-weight="800">02</text><text x="26" y="88" fill="#FFF" font-size="25" font-weight="850">AI Evaluation</text><text x="26" y="132" fill="#E4DDFF" font-size="18">model output QA</text><text x="26" y="164" fill="#E4DDFF" font-size="18">rubric checks</text><text x="26" y="196" fill="#E4DDFF" font-size="18">logic validation</text><text x="26" y="250" fill="#98A8CA" font-size="15">output: grounded review notes</text></g>
    <g transform="translate(690 190)"><rect width="282" height="300" rx="24" fill="#111928" stroke="#FFB84D" stroke-opacity="0.33"/><text x="26" y="48" fill="#FFB84D" font-size="18" font-weight="800">03</text><text x="26" y="88" fill="#FFF" font-size="25" font-weight="850">Benchmark QA</text><text x="26" y="132" fill="#FFF1DB" font-size="18">edge cases</text><text x="26" y="164" fill="#FFF1DB" font-size="18">reference behavior</text><text x="26" y="196" fill="#FFF1DB" font-size="18">hidden tests</text><text x="26" y="250" fill="#A5B2C7" font-size="15">output: stronger task confidence</text></g>
    <g transform="translate(996 190)"><rect width="282" height="300" rx="24" fill="#0D1821" stroke="#66FFB8" stroke-opacity="0.24"/><text x="26" y="48" fill="#66FFB8" font-size="18" font-weight="800">04</text><text x="26" y="88" fill="#FFF" font-size="25" font-weight="850">CI Evidence</text><text x="26" y="132" fill="#DDFDEE" font-size="18">workflow review</text><text x="26" y="164" fill="#DDFDEE" font-size="18">command proof</text><text x="26" y="196" fill="#DDFDEE" font-size="18">artifacts</text><text x="26" y="250" fill="#90A8BE" font-size="15">output: auditable decisions</text></g>
    <g transform="translate(1302 190)"><rect width="220" height="300" rx="24" fill="#0B1224" stroke="#C8D6FF" stroke-opacity="0.20"/><text x="24" y="48" fill="#C8D6FF" font-size="18" font-weight="800">05</text><text x="24" y="88" fill="#FFF" font-size="24" font-weight="850">Repo Review</text><text x="24" y="132" fill="#E2EAFF" font-size="18">clone</text><text x="24" y="164" fill="#E2EAFF" font-size="18">inspect</text><text x="24" y="196" fill="#E2EAFF" font-size="18">compare states</text><text x="24" y="250" fill="#93A7C9" font-size="15">output: reviewable path</text></g>
  </g>
</svg>
