<svg width="1400" height="300" viewBox="0 0 1400 300" xmlns="http://www.w3.org/2000/svg" role="img" aria-label="DevS69 SDETKit system map">
  <rect width="1400" height="300" rx="28" fill="#0B1020"/>
  <text x="700" y="42" text-anchor="middle" font-family="Inter,Segoe UI,Arial,sans-serif" font-size="25" font-weight="900" fill="#F8FAFC">DevS69 SDETKit — Evidence-First Reliability Toolkit</text>
  <g font-family="Inter,Segoe UI,Arial,sans-serif" font-size="15" font-weight="800">
    <rect x="55" y="92" width="205" height="82" rx="18" fill="#0F172A" stroke="#38BDF8"/>
    <text x="157" y="126" text-anchor="middle" fill="#E0F2FE">Repo Reading</text>
    <text x="157" y="151" text-anchor="middle" font-size="12" fill="#94A3B8">files · workflows · proof</text>

    <rect x="300" y="92" width="205" height="82" rx="18" fill="#0F172A" stroke="#A78BFA"/>
    <text x="402" y="126" text-anchor="middle" fill="#EDE9FE">CI Governance</text>
    <text x="402" y="151" text-anchor="middle" font-size="12" fill="#94A3B8">permissions · evidence</text>

    <rect x="545" y="92" width="205" height="82" rx="18" fill="#0F172A" stroke="#22C55E"/>
    <text x="647" y="126" text-anchor="middle" fill="#DCFCE7">Failure Diagnosis</text>
    <text x="647" y="151" text-anchor="middle" font-size="12" fill="#94A3B8">first failure · root cause</text>

    <rect x="790" y="92" width="205" height="82" rx="18" fill="#0F172A" stroke="#F59E0B"/>
    <text x="892" y="126" text-anchor="middle" fill="#FEF3C7">Release Confidence</text>
    <text x="892" y="151" text-anchor="middle" font-size="12" fill="#94A3B8">package · provenance</text>

    <rect x="1035" y="92" width="310" height="82" rx="18" fill="#0F172A" stroke="#FB7185"/>
    <text x="1190" y="126" text-anchor="middle" fill="#FFE4E6">Review-First Safety</text>
    <text x="1190" y="151" text-anchor="middle" font-size="12" fill="#94A3B8">no hidden auto-merge · no fake proof</text>

    <path d="M260 133H300" stroke="#64748B" stroke-width="3"/>
    <path d="M505 133H545" stroke="#64748B" stroke-width="3"/>
    <path d="M750 133H790" stroke="#64748B" stroke-width="3"/>
    <path d="M995 133H1035" stroke="#64748B" stroke-width="3"/>
  </g>
  <rect x="145" y="220" width="1110" height="44" rx="18" fill="#111827" stroke="#334155"/>
  <text x="700" y="249" text-anchor="middle" font-family="JetBrains Mono,Consolas,monospace" font-size="15" fill="#CBD5E1">small PRs → focused proof → structured artifacts → reviewer confidence → safer engineering systems</text>
</svg>
